<svg xmlns="http://www.w3.org/2000/svg" xmlns:xlink="http://www.w3.org/1999/xlink" viewBox="0 0 80 123"><path fill="#fff" d="M10.556 4.192a3.063 3.063 0 00-.68-.762 3.193 3.193 0 00-1.999-.694c-.686 0-1.268.132-1.747.395a3.299 3.299 0 00-1.164 1.06 4.625 4.625 0 00-.65 1.514 7.482 7.482 0 00-.204 1.755c0 .578.067 1.14.203 1.687.136.546.353 1.038.65 1.475a3.33 3.33 0 001.165 1.05c.479.264 1.061.396 1.747.396.932 0 1.66-.283 2.184-.848.524-.566.844-1.311.96-2.236h2.95c-.077.86-.277 1.638-.6 2.332a5.594 5.594 0 01-1.282 1.774 5.459 5.459 0 01-1.864 1.118c-.711.257-1.494.386-2.348.386-1.061 0-2.016-.183-2.863-.55a6.12 6.12 0 01-2.145-1.514 6.68 6.68 0 01-1.339-2.265 8.256 8.256 0 01-.466-2.805c0-1.029.155-1.983.466-2.863a6.85 6.85 0 011.34-2.304A6.119 6.119 0 015.013.75C5.861.378 6.816.19 7.877.19c.764 0 1.485.11 2.164.329.68.218 1.287.536 1.824.954.538.418.98.935 1.33 1.552.35.617.57 1.325.66 2.121h-2.95a2.47 2.47 0 00-.35-.954M21.435 6.65c-.33-.36-.832-.54-1.505-.54-.44 0-.805.074-1.096.222a2.086 2.086 0 00-.699.549c-.175.22-.298.45-.369.695a3.058 3.058 0 00-.126.655h4.484c-.13-.695-.36-1.221-.69-1.58zm-3.116 5.245c.414.397 1.01.597 1.786.597.556 0 1.035-.138 1.436-.415.401-.276.647-.568.738-.877h2.426c-.388 1.196-.983 2.05-1.786 2.565-.802.514-1.773.77-2.911.77-.79 0-1.501-.124-2.135-.375a4.443 4.443 0 01-1.611-1.07 4.804 4.804 0 01-1.02-1.658 6.03 6.03 0 01-.358-2.121c0-.745.122-1.44.368-2.083a4.874 4.874 0 011.049-1.667 4.93 4.93 0 011.62-1.109c.628-.27 1.323-.405 2.087-.405.854 0 1.598.164 2.232.491a4.448 4.448 0 011.562 1.322c.408.553.702 1.182.884 1.89.18.706.245 1.445.193 2.217H17.64c.039.886.265 1.53.68 1.928zM28.742 4.317v1.851h.039a3.44 3.44 0 011.281-1.533c.284-.186.589-.331.912-.434.324-.103.66-.154 1.01-.154.18 0 .38.033.601.097v2.545a5.317 5.317 0 00-.466-.068 4.95 4.95 0 00-.524-.029c-.504 0-.931.084-1.28.251-.35.167-.632.395-.845.684-.214.29-.366.627-.456 1.013-.09.385-.136.803-.136 1.252v4.493h-2.756V4.317h2.62M39.961 4.317v1.831h-2.02v4.936c0 .464.08.772.235.926.155.154.466.232.93.232.156 0 .305-.007.447-.02.142-.012.278-.031.408-.058v2.121a6.597 6.597 0 01-.777.077c-.284.013-.562.02-.834.02-.427 0-.832-.03-1.214-.087a2.866 2.866 0 01-1.009-.337 1.797 1.797 0 01-.689-.714c-.168-.309-.251-.714-.251-1.214V6.148h-1.67v-1.83h1.67v-2.99h2.755v2.99h2.02M41.358 14.285h2.756V4.317h-2.756v9.968zm0-11.51h2.756V.519h-2.756v2.256zM45.24 6.148v-1.83h1.65v-.772c0-.887.277-1.613.834-2.179C48.28.802 49.122.52 50.248.52c.245 0 .492.01.738.029.244.019.484.036.717.048V2.64a8.445 8.445 0 00-1.01-.059c-.374 0-.643.088-.805.261-.161.173-.242.466-.242.877v.598h1.902v1.831h-1.902v8.137H46.89V6.148h-1.65M53.217 14.285h2.757V4.317h-2.757v9.968zm0-11.51h2.757V.519h-2.757v2.256zM63.435 6.65c-.329-.36-.832-.54-1.503-.54-.44 0-.805.074-1.097.222a2.027 2.027 0 00-1.068 1.244c-.07.244-.112.462-.125.655h4.483c-.129-.695-.358-1.221-.69-1.58zm-3.114 5.245c.414.397 1.01.597 1.785.597.557 0 1.035-.138 1.436-.415.402-.276.648-.568.738-.877h2.426c-.388 1.196-.984 2.05-1.785 2.565-.804.514-1.773.77-2.912.77-.79 0-1.501-.124-2.135-.375a4.436 4.436 0 01-1.61-1.07 4.789 4.789 0 01-1.02-1.658 6.042 6.042 0 01-.359-2.121c0-.745.123-1.44.369-2.083a4.866 4.866 0 011.048-1.667c.453-.47.993-.839 1.62-1.109.628-.27 1.323-.405 2.087-.405.854 0 1.599.164 2.233.491a4.459 4.459 0 011.562 1.322c.407.553.702 1.182.882 1.89a6.99 6.99 0 01.195 2.217h-7.24c.04.886.265 1.53.68 1.928zM75.13 8.086a2.886 2.886 0 00-.398-1.002 2.23 2.23 0 00-.728-.704c-.298-.18-.672-.27-1.125-.27-.453 0-.835.09-1.145.27-.31.18-.56.418-.748.714a3.124 3.124 0 00-.407 1.012 5.4 5.4 0 00-.125 1.186c0 .385.044.77.134 1.156.09.386.237.73.437 1.032.201.302.453.546.757.732.304.187.67.28 1.097.28.453 0 .831-.09 1.136-.27.303-.18.546-.42.727-.723.18-.302.31-.646.388-1.031a5.98 5.98 0 00.117-1.195c0-.411-.039-.807-.117-1.187zm.117 4.927c-.325.54-.748.929-1.272 1.166-.524.238-1.115.357-1.776.357-.75 0-1.41-.144-1.979-.434a3.96 3.96 0 01-1.408-1.176 5.287 5.287 0 01-.834-1.706 7.12 7.12 0 01-.281-2.006c0-.668.093-1.314.28-1.937a5.008 5.008 0 01.835-1.65A4.162 4.162 0 0170.2 4.482c.556-.29 1.203-.434 1.941-.434a3.96 3.96 0 011.697.376c.539.251.962.62 1.273 1.109h.038V.519h2.757v13.766h-2.62v-1.272h-.039zM28.865 75.74h14.77c5.084 0 8.31-3.08 8.31-7.888 0-5.73-4.651-7.33-9.616-7.33H28.865V75.74zm0-20.15h11.792c6.698 0 9.429-2.402 9.429-7.023 0-6.102-4.342-6.963-9.429-6.963H28.865V55.59zm-5.89-18.915h16.067c3.909 0 9.058 0 11.724 1.602 2.916 1.725 5.21 4.868 5.21 9.182 0 4.681-2.48 8.194-6.574 9.857v.123c5.46 1.11 8.435 5.177 8.435 10.6 0 6.468-4.653 12.63-13.46 12.63H22.977V36.676z"/><path fill="#fff" d="M39.214 20.125C17.784 20.125.41 37.383.41 58.672c0 21.288 17.374 38.547 38.804 38.547 21.434 0 38.807-17.259 38.807-38.547 0-21.289-17.373-38.547-38.807-38.547zm33.69 38.566c0 18.482-15.081 33.465-33.69 33.465-18.605 0-33.687-14.983-33.687-33.465 0-18.48 15.082-33.462 33.687-33.462 18.609 0 33.69 14.981 33.69 33.462zM7.574 105.546c-.14-.97-1.074-1.707-2.146-1.707-1.936 0-2.665 1.64-2.665 3.346 0 1.622.729 3.26 2.665 3.26 1.318 0 2.064-.9 2.226-2.184h2.091c-.221 2.43-1.91 3.985-4.317 3.985-3.035 0-4.82-2.252-4.82-5.061 0-2.895 1.785-5.147 4.82-5.147 2.158 0 3.97 1.256 4.233 3.508H7.574M14.248 110.745c1.332 0 1.73-1.133 1.73-2.251 0-1.132-.398-2.266-1.73-2.266-1.319 0-1.72 1.134-1.72 2.266 0 1.118.401 2.25 1.72 2.25zm0-5.976c2.24 0 3.682 1.472 3.682 3.725 0 2.238-1.442 3.712-3.682 3.712-2.226 0-3.668-1.474-3.668-3.712 0-2.253 1.442-3.725 3.668-3.725zM19.056 104.96h1.853v1.308h.028c.356-.886 1.319-1.499 2.269-1.499.137 0 .3.026.426.066v1.802a3.664 3.664 0 00-.701-.066c-1.43 0-1.927 1.023-1.927 2.264v3.18h-1.948v-7.056M29.948 108.508c0-1.121-.453-2.28-1.703-2.28-1.278 0-1.69 1.134-1.69 2.28 0 1.145.44 2.237 1.704 2.237 1.279 0 1.689-1.092 1.689-2.237zm-5.275-3.549h1.856v.9h.027c.467-.75 1.236-1.09 2.114-1.09 2.228 0 3.229 1.787 3.229 3.792 0 1.884-1.042 3.645-3.119 3.645-.85 0-1.66-.37-2.128-1.065h-.029v3.357h-1.95v-9.539zM36.513 110.745c1.333 0 1.733-1.133 1.733-2.251 0-1.132-.4-2.266-1.733-2.266-1.317 0-1.717 1.134-1.717 2.266 0 1.118.4 2.25 1.717 2.25zm0-5.976c2.24 0 3.686 1.472 3.686 3.725 0 2.238-1.445 3.712-3.686 3.712-2.225 0-3.666-1.474-3.666-3.712 0-2.253 1.441-3.725 3.666-3.725zM41.462 104.96h1.855v1.308h.029c.355-.886 1.317-1.499 2.265-1.499.137 0 .302.026.426.066v1.802a3.63 3.63 0 00-.7-.066c-1.43 0-1.925 1.023-1.925 2.264v3.18h-1.95v-7.056M51.23 108.56c-.332.29-1.018.3-1.623.41-.604.122-1.153.33-1.153 1.038 0 .724.563.9 1.196.9 1.522 0 1.58-1.2 1.58-1.623v-.724zm-4.509-1.43c.112-1.817 1.745-2.36 3.34-2.36 1.414 0 3.119.312 3.119 2.003v3.672c0 .642.067 1.283.249 1.57h-1.98a3.076 3.076 0 01-.14-.684c-.617.644-1.523.875-2.388.875-1.347 0-2.418-.668-2.418-2.117 0-1.595 1.211-1.977 2.418-2.141 1.196-.178 2.31-.137 2.31-.93 0-.83-.581-.954-1.266-.954-.742 0-1.222.3-1.292 1.065H46.72zM57.162 104.96h1.43v1.295h-1.43v3.492c0 .657.166.82.824.82.207 0 .4-.013.606-.053v1.515a7.565 7.565 0 01-1.143.068c-1.192 0-2.236-.275-2.236-1.68v-4.162H54.03v-1.296h1.183v-2.116h1.95v2.116M59.58 112.015h1.95v-7.056h-1.95v7.056zm0-8.148h1.95v-1.598h-1.95v1.598zM66.24 110.745c1.336 0 1.732-1.133 1.732-2.251 0-1.132-.396-2.266-1.732-2.266-1.318 0-1.717 1.134-1.717 2.266 0 1.118.4 2.25 1.717 2.25zm0-5.976c2.242 0 3.686 1.472 3.686 3.725 0 2.238-1.444 3.712-3.686 3.712-2.223 0-3.664-1.474-3.664-3.712 0-2.253 1.44-3.725 3.664-3.725zM71.186 104.96h1.856v.982h.04c.495-.792 1.347-1.173 2.172-1.173 2.074 0 2.595 1.16 2.595 2.906v4.34H75.9v-3.986c0-1.16-.345-1.734-1.25-1.734-1.06 0-1.512.588-1.512 2.021v3.699h-1.95v-7.056M.554 122.933h77.36v-4.916H.554zM79.079 102.42a.53.53 0 00-.239-.04h-.167v.4h.177a.546.546 0 00.187-.023.173.173 0 00.116-.174c0-.08-.026-.134-.074-.162zm-.212-.174c.138 0 .239.015.304.04.115.047.172.14.172.28 0 .1-.035.173-.108.22a.424.424 0 01-.161.053c.086.014.151.05.191.108a.31.31 0 01.06.172v.081a.772.772 0 00.014.14l.006.013h-.185l-.001-.01-.003-.013-.005-.035v-.088c0-.127-.035-.212-.104-.253a.493.493 0 00-.22-.036h-.154v.435h-.197v-1.107h.39zm-.598-.056a.834.834 0 00-.254.614c0 .242.084.45.252.619.17.17.377.255.62.255a.837.837 0 00.616-.255.843.843 0 00.256-.619.834.834 0 00-.256-.614.842.842 0 00-.617-.255.842.842 0 00-.617.255zm1.337 1.329a.984.984 0 01-.72.297.98.98 0 01-.718-.297.979.979 0 01-.295-.716c0-.277.1-.515.298-.711a.972.972 0 01.715-.295c.28 0 .52.098.72.295a.962.962 0 01.296.71c0 .28-.098.52-.296.717z"/></svg>